<?xml version="1.0" standalone="no"?>
<!DOCTYPE svg PUBLIC "-//W3C//DTD SVG 20010904//EN" "http://www.w3.org/TR/2001/REC-SVG-20010904/DTD/svg10.dtd">
<svg version="1.0" xmlns="http://www.w3.org/2000/svg" width="512.000000pt" height="512.000000pt"
    viewBox="0 0 512.000000 512.000000" preserveAspectRatio="xMidYMid meet">
    <metadata>
        Created by potrace 1.16, written by Peter Selinger 2001-2019
    </metadata>
        <rect width="512" height="512" fill="#000000" />
        <g transform="translate(256 256) scale(1.08) translate(-256 -256)">
        <g transform="translate(0.000000,512.000000) scale(0.100000,-0.100000)" fill="#10b981" stroke="#10b981" stroke-width="60" stroke-linejoin="round" stroke-linecap="round" paint-order="stroke fill" shape-rendering="geometricPrecision">
        <path d="M836 4123 c-6 -14 -5 -15 5 -6 7 7 10 15 7 18 -3 3 -9 -2 -12 -12z" />
        <path d="M792 4037 c-18 -34 -32 -67 -32 -73 0 -6 -18 -52 -40 -102 -22 -49
-40 -96 -40 -103 0 -7 -5 -28 -12 -46 -10 -29 -10 -36 2 -43 9 -6 10 -10 3
-10 -6 0 -10 -8 -8 -17 1 -10 -2 -23 -7 -30 -5 -6 -10 -33 -12 -60 -1 -27 -6
-55 -10 -61 -4 -7 -2 -12 5 -12 8 0 8 -4 -1 -15 -10 -12 -10 -15 2 -15 11 0
17 17 22 63 16 143 94 435 143 530 13 27 23 51 21 53 -2 2 -19 -25 -36 -59z" />
        <path d="M1515 3903 c-97 -130 -134 -184 -151 -223 -9 -19 -29 -64 -46 -100
-36 -75 -42 -96 -73 -245 -41 -199 -43 -218 -40 -380 9 -330 47 -518 147 -704
107 -202 253 -380 410 -498 140 -105 197 -145 243 -168 28 -14 39 -18 25 -8
-192 138 -346 279 -445 407 -159 206 -273 471 -309 718 -66 455 16 850 247
1191 36 53 64 97 62 97 -2 0 -34 -39 -70 -87z" />
        <path d="M3085 3960 l-70 -6 73 -2 c239 -6 465 -77 665 -209 89 -59 283 -250
363 -358 32 -44 62 -81 67 -83 4 -2 7 -8 7 -14 0 -5 13 -28 28 -51 32 -47 136
-249 147 -287 3 -9 17 -45 25 -65 11 -25 22 -64 26 -90 2 -11 11 -51 19 -90
14 -62 27 -138 40 -245 9 -76 6 -419 -5 -485 -6 -38 -13 -86 -16 -105 -2 -19
-7 -51 -9 -70 -3 -19 -8 -53 -10 -75 -3 -22 -8 -46 -10 -52 -2 -7 -1 -13 4
-13 11 0 46 190 67 360 19 164 22 515 6 654 -7 55 -22 145 -34 200 -12 56 -22
109 -22 119 0 9 -4 17 -9 17 -5 0 -7 7 -4 15 4 8 2 17 -4 20 -5 4 -7 11 -4 16
4 5 1 9 -6 9 -7 0 -10 3 -7 6 7 6 -59 144 -98 206 -15 24 -26 44 -23 46 2 2
-4 8 -13 13 -10 6 -18 14 -18 19 0 5 -10 20 -22 33 -13 13 -50 54 -82 92 -33
37 -100 100 -150 140 -320 254 -621 364 -921 335z" />
        <path d="M2968 3943 c7 -3 16 -2 19 1 4 3 -2 6 -13 5 -11 0 -14 -3 -6 -6z" />
        <path d="M2968 3723 c12 -2 30 -2 40 0 9 3 -1 5 -23 4 -22 0 -30 -2 -17 -4z" />
        <path d="M3130 3723 c301 -28 563 -154 770 -369 213 -222 300 -457 329 -892
l8 -117 2 106 c3 236 -50 513 -127 668 -100 199 -275 367 -500 480 -153 77
-352 132 -467 129 -36 -1 -40 -2 -15 -5z" />
        <path d="M936 3579 c-75 -218 -124 -694 -97 -935 12 -102 13 -107 29 -119 7
-6 27 -58 43 -115 17 -58 34 -109 39 -115 4 -5 13 -31 21 -57 7 -27 17 -48 21
-48 4 0 13 -18 19 -41 11 -34 10 -42 -2 -50 -11 -6 -11 -9 -1 -9 7 0 10 -4 7
-10 -3 -5 -1 -10 5 -10 6 0 8 -5 5 -10 -4 -6 -11 -7 -17 -4 -7 4 -8 2 -4 -4
4 -6 13 -9 21 -5 8 3 15 1 15 -5 0 -6 3 -18 7 -28 5 -13 3 -15 -8 -9 -8 5 -11 5
-6 -1 5 -5 13 -10 18 -10 5 -1 14 -2 20 -3 5 0 8 -5 5 -9 -6 -9 109 -165 207
-281 85 -99 240 -245 265 -248 37 -4 72 -17 127 -46 22 -11 72 -38 112 -58 92
-49 233 -101 356 -133 99 -25 303 -53 314 -42 8 8 -5 11 -126 30 -422 66 -862
370 -1134 781 -303 460 -399 995 -272 1508 12 51 21 94 19 96 -2 2 -6 -2 -8
-10z" />
        <path d="M3155 3538 c22 -5 69 -16 105 -24 84 -19 247 -100 331 -163 140 -107
280 -279 363 -448 60 -122 69 -145 87 -207 10 -33 18 -54 18 -46 2 38 -45 175
-94 277 -120 245 -303 435 -520 539 -95 45 -235 85 -295 83 l-35 -1 40 -10z" />
        <path d="M634 3431 c3 -5 -1 -30 -8 -57 -20 -66 -27 -177 -27 -375 1 -171 2
-183 26 -329 23 -136 133 -465 150 -448 2 2 -7 35 -21 73 -36 99 -80 289 -100
430 -19 131 -25 487 -11 633 5 57 4 82 -3 82 -6 0 -9 -4 -6 -9z" />
        <path d="M3063 3343 c20 -2 54 -2 75 0 20 2 3 4 -38 4 -41 0 -58 -2 -37 -4z" />
        <path d="M3268 3314 c46 -13 101 -33 123 -44 21 -11 39 -18 39 -15 0 15 -189
86 -229 84 -9 0 21 -11 67 -25z" />
        <path d="M1521 3214 c0 -11 3 -14 6 -6 3 7 2 16 -1 19 -3 4 -6 -2 -5 -13z" />
        <path d="M3001 3199 c-30 -5 -56 -11 -58 -13 -2 -2 38 -1 90 2 165 8 334 -50
449 -157 195 -179 292 -384 291 -616 0 -61 -6 -137 -13 -168 -6 -32 -10 -61
-7 -63 3 -3 13 38 22 92 20 111 16 251 -10 349 -72 274 -313 519 -560 570 -78
16 -124 17 -204 4z" />
        <path d="M3510 3196 c0 -2 8 -10 18 -17 15 -13 16 -12 3 4 -13 16 -21 21 -21
13z" />
        <path d="M3035 3163 c56 -7 183 -54 227 -83 66 -44 160 -147 201 -221 126
-226 100 -537 -65 -788 l-30 -46 31 35 c46 54 107 166 137 255 22 64 28 104
32 200 6 183 -30 304 -132 443 -25 33 -42 64 -38 68 4 4 2 4 -5 0 -6 -3 -16 2
-22 11 -6 10 -11 15 -11 11 0 -4 -12 4 -27 18 -58 54 -206 106 -291 103 -33
-2 -34 -2 -7 -6z" />
        <path d="M1512 3140 c0 -14 2 -19 5 -12 2 6 2 18 0 25 -3 6 -5 1 -5 -13z" />
        <path d="M2309 3112 c-96 -106 -110 -125 -144 -191 -45 -90 -59 -176 -52 -320
4 -98 10 -132 40 -220 68 -200 184 -330 370 -416 131 -60 268 -70 367 -26 l45
20 -96 0 c-56 1 -118 8 -150 17 -353 103 -581 508 -490 866 22 84 75 197 127
271 19 26 32 47 30 47 -2 0 -23 -22 -47 -48z m-154 -406 c-11 -146 20 -296 85
-414 16 -30 23 -49 16 -43 -22 18 -75 142 -96 226 -20 78 -26 210 -14 288 12
68 16 39 9 -57z" />
        <path d="M3570 3147 c0 -2 15 -16 33 -33 l32 -29 -29 33 c-28 30 -36 37 -36
29z" />
        <path d="M2579 3073 c-13 -16 -12 -17 4 -4 16 13 21 21 13 21 -2 0 -10 -8 -17
-17z" />
        <path d="M2935 3050 c-35 -8 -22 -15 42 -24 59 -8 148 -49 199 -91 55 -46 127
-154 153 -232 55 -165 31 -345 -66 -483 -20 -28 -17 -27 15 9 103 114 149 314
107 470 -45 169 -173 307 -320 346 -63 16 -82 17 -130 5z" />
        <path d="M3650 3056 c0 -2 8 -10 18 -17 15 -13 16 -12 3 4 -13 16 -21 21 -21
13z" />
        <path d="M1504 2940 c0 -63 1 -89 3 -57 2 31 2 83 0 115 -2 31 -3 5 -3 -58z" />
        <path d="M2538 3018 c-14 -18 -35 -53 -48 -78 -12 -25 -28 -52 -35 -60 -23
-26 -72 -133 -84 -184 -7 -27 -11 -83 -10 -125 7 -250 211 -427 436 -378 l48
10 -71 12 c-116 20 -194 72 -263 176 -72 108 -99 253 -70 379 12 54 69 184
104 240 30 48 27 52 -7 8z" />
        <path d="M3465 2960 c21 -22 41 -40 44 -40 3 0 -13 18 -34 40 -21 22 -41 40
-44 40 -3 0 13 -18 34 -40z" />
        <path d="M2649 2973 c-13 -16 -12 -17 4 -4 16 13 21 21 13 21 -2 0 -10 -8 -17
-17z" />
        <path d="M2112 2908 c-58 -178 -68 -328 -32 -491 22 -101 41 -146 100 -242 23
-38 51 -86 62 -105 26 -46 80 -102 93 -96 6 2 26 -10 45 -27 19 -16 29 -27 23
-23 -19 10 -16 1 4 -15 11 -10 14 -10 9 -1 -11 18 0 15 47 -13 112 -65 289
-106 382 -87 l50 10 -40 1 c-379 11 -698 308 -756 703 -15 102 -6 257 20 363
11 44 18 81 16 83 -2 2 -12 -25 -23 -60z" />
        <path d="M2612 2923 c-70 -100 -102 -222 -82 -320 31 -153 115 -244 224 -243
l41 1 -39 14 c-147 52 -231 252 -180 426 9 30 27 75 40 102 27 53 25 61 -4 20z" />
        <path d="M3535 2873 c15 -24 30 -43 32 -43 7 0 -31 61 -46 73 -8 7 -2 -7 14
-30z" />
        <path d="M2221 2834 c-16 -82 -14 -233 5 -315 9 -39 18 -68 20 -66 3 2 -2 33
-11 68 -17 75 -20 236 -4 309 6 28 9 53 6 56 -2 2 -9 -21 -16 -52z" />
        <path d="M2846 2821 c-22 -9 -17 -12 41 -31 123 -38 206 -202 173 -343 -16
-67 -34 -103 -74 -147 l-31 -34 45 35 c30 24 57 59 80 104 32 62 35 76 34 149
0 67 -5 90 -26 131 -57 108 -162 167 -242 136z" />
        <path d="M2012 2795 c0 -16 2 -22 5 -12 2 9 2 23 0 30 -3 6 -5 -1 -5 -18z" />
        <path d="M3570 2815 c0 -3 9 -23 20 -44 26 -52 49 -148 60 -256 l9 -90 -4 93
c-5 101 -23 181 -55 255 -19 42 -30 58 -30 42z" />
        <path d="M1512 2755 c0 -16 2 -22 5 -12 2 9 2 23 0 30 -3 6 -5 -1 -5 -18z" />
        <path d="M2669 2703 c-14 -35 -5 -101 15 -121 14 -14 14 -12 5 23 -6 22 -8 59
-5 82 6 49 0 56 -15 16z" />
        <path d="M1522 2680 c0 -14 2 -19 5 -12 2 6 2 18 0 25 -3 6 -5 1 -5 -13z" />
        <path d="M2015 2555 c7 -159 77 -369 167 -503 74 -110 171 -194 293 -255 103
-52 175 -67 301 -66 l109 2 -85 8 c-131 13 -215 35 -315 83 -157 74 -301 230
-376 407 -38 89 -77 237 -89 339 l-9 75 4 -90z" />
        <path d="M4061 2604 c0 -11 3 -14 6 -6 3 7 2 16 -1 19 -3 4 -6 -2 -5 -13z" />
        <path d="M4072 2535 c0 -16 2 -22 5 -12 2 9 2 23 0 30 -3 6 -5 -1 -5 -18z" />
        <path d="M3881 2504 c0 -11 3 -14 6 -6 3 7 2 16 -1 19 -3 4 -6 -2 -5 -13z" />
        <path d="M2250 2435 c0 -5 5 -17 10 -25 5 -8 10 -10 10 -5 0 6 -5 17 -10 25
-5 8 -10 11 -10 5z" />
        <path d="M581 2394 c0 -11 3 -14 6 -6 3 7 2 16 -1 19 -3 4 -6 -2 -5 -13z" />
        <path d="M3642 2380 c0 -19 2 -27 5 -17 2 9 2 25 0 35 -3 9 -5 1 -5 -18z" />
        <path d="M592 2318 c5 -29 15 -73 22 -98 54 -179 72 -230 91 -270 12 -25 26
-61 30 -80 9 -43 90 -205 139 -280 20 -30 36 -58 36 -63 0 -7 55 -83 70 -97 3
-3 16 -19 28 -37 53 -76 365 -371 418 -395 13 -6 24 -15 24 -20 0 -4 4 -8 9
-8 6 0 30 -13 53 -29 122 -83 256 -135 482 -190 151 -37 246 -49 246 -32 0 6
-11 11 -24 11 -49 0 -274 64 -389 110 -551 224 -1014 771 -1203 1420 -32 110
-46 135 -32 58z" />
        <path d="M3882 2350 c0 -14 2 -19 5 -12 2 6 2 18 0 25 -3 6 -5 1 -5 -13z" />
        <path d="M2858 2213 c7 -3 16 -2 19 1 4 3 -2 6 -13 5 -11 0 -14 -3 -6 -6z" />
        <path d="M2020 2094 c0 -5 7 -18 15 -28 12 -16 15 -17 15 -4 0 8 -7 21 -15 28
-8 7 -15 9 -15 4z" />
        <path d="M2060 2046 c0 -2 8 -10 18 -17 15 -13 16 -12 3 4 -13 16 -21 21 -21
13z" />
        <path d="M3344 1998 l-19 -23 23 19 c21 18 27 26 19 26 -2 0 -12 -10 -23 -22z" />
        <path d="M1051 1977 c-1 -4 27 -54 62 -109 72 -119 282 -344 407 -436 41 -31
81 -60 88 -65 6 -5 12 -7 12 -5 0 3 -55 53 -122 111 -153 132 -306 305 -430
487 -9 14 -17 21 -17 17z" />
        <path d="M2355 1950 c10 -11 20 -20 23 -20 3 0 -3 9 -13 20 -10 11 -20 20 -23
20 -3 0 3 -9 13 -20z" />
        <path d="M2220 1868 c47 -47 93 -85 103 -85 15 0 14 12 -1 12 -4 1 -38 30 -75
65 -104 98 -123 103 -27 8z" />
        <path d="M3284 1928 l-19 -23 23 19 c12 11 22 21 22 23 0 8 -8 2 -26 -19z" />
        <path d="M2350 1776 c0 -2 7 -9 15 -16 9 -7 15 -8 15 -2 0 5 -7 12 -15 16 -8
3 -15 4 -15 2z" />
        <path d="M2908 1743 c6 -2 18 -2 25 0 6 3 1 5 -13 5 -14 0 -19 -2 -12 -5z" />
        <path d="M2620 1661 c0 -5 16 -11 35 -13 39 -5 34 6 -7 16 -16 3 -28 2 -28 -3z" />
        <path d="M3058 1653 c7 -3 16 -2 19 1 4 3 -2 6 -13 5 -11 0 -14 -3 -6 -6z" />
        <path d="M2725 1639 c17 -4 82 -7 145 -7 147 0 123 6 -45 10 -71 3 -116 1
-100 -3z" />
        <path d="M3008 1643 c6 -2 18 -2 25 0 6 3 1 5 -13 5 -14 0 -19 -2 -12 -5z" />
        <path d="M4412 1629 c-6 -14 -13 -48 -16 -75 -6 -49 -6 -49 14 16 20 65 21
108 2 59z" />
        <path d="M2448 1413 c7 -3 16 -2 19 1 4 3 -2 6 -13 5 -11 0 -14 -3 -6 -6z" />
        <path d="M2498 1403 c7 -3 16 -2 19 1 4 3 -2 6 -13 5 -11 0 -14 -3 -6 -6z" />
        <path d="M2653 1383 c9 -2 23 -2 30 0 6 3 -1 5 -18 5 -16 0 -22 -2 -12 -5z" />
        <path d="M2828 1383 c7 -3 16 -2 19 1 4 3 -2 6 -13 5 -11 0 -14 -3 -6 -6z" />
        <path d="M1630 1352 c0 -12 19 -26 26 -19 2 2 -2 10 -11 17 -9 8 -15 8 -15 2z" />
        <path d="M1664 1312 c4 -3 14 -7 22 -8 9 -1 13 0 10 4 -4 3 -14 7 -22 8 -9 1
-13 0 -10 -4z" />
        <path d="M2548 1173 c18 -2 45 -2 60 0 15 2 0 4 -33 4 -33 0 -45 -2 -27 -4z" />
        <path d="M2250 716 c0 -2 18 -6 39 -8 22 -2 37 0 35 4 -5 8 -74 11 -74 4z" />
        <path d="M2588 713 c6 -2 18 -2 25 0 6 3 1 5 -13 5 -14 0 -19 -2 -12 -5z" />
        <path d="M2377 703 c18 -2 50 -2 70 0 21 2 7 4 -32 4 -38 0 -55 -2 -38 -4z" />
        </g>
        </g>
</svg>